<?xml version="1.0" standalone="no"?>
<!DOCTYPE svg PUBLIC "-//W3C//DTD SVG 20010904//EN" "http://www.w3.org/TR/2001/REC-SVG-20010904/DTD/svg10.dtd">
<svg version="1.0" xmlns="http://www.w3.org/2000/svg" width="1905.000000pt" height="1461.000000pt" viewBox="0 0 1905.000000 1461.000000" preserveAspectRatio="xMidYMid meet">
	<metadata>
		Created by potrace 1.16, written by Peter Selinger 2001-2019
	</metadata>
	<g transform="translate(0.000000,1461.000000) scale(0.100000,-0.100000)" fill="#000000" stroke="none">
		<path d="M4000 14138 c-3 -3 -63 -8 -134 -12 -72 -3 -146 -8 -165 -11 -20 -2
-76 -9 -126 -15 -671 -82 -1387 -366 -1965 -780 -260 -186 -521 -415 -722
-633 -116 -127 -273 -316 -312 -378 l-18 -30 551 1 551 1 52 77 c189 284 502
587 818 794 403 263 839 421 1295 468 107 11 417 14 506 5 622 -65 1160 -263
1709 -628 1310 -872 2209 -2463 2444 -4322 35 -272 67 -665 54 -665 -2 0 -105
53 -228 118 -124 65 -292 154 -375 197 -82 43 -202 106 -265 140 -63 34 -182
97 -265 140 -82 43 -215 113 -295 155 -80 42 -194 103 -255 135 -60 32 -189
99 -285 150 -502 266 -861 455 -907 479 l-52 26 -948 -737 c-1123 -873 -1361
-1063 -1798 -1437 -627 -537 -1162 -1067 -1467 -1452 -503 -637 -783 -1259
-880 -1954 -26 -193 -33 -597 -12 -790 61 -562 268 -1072 615 -1512 104 -132
354 -379 489 -484 522 -406 1113 -645 1805 -730 198 -25 749 -24 906 1 13 2
49 6 79 9 421 47 937 176 1364 342 1462 569 2670 1674 3372 3084 151 305 245
531 354 858 32 96 60 176 62 178 3 2 17 -42 32 -99 49 -176 171 -537 250 -736
471 -1185 1217 -2136 2176 -2776 739 -492 1491 -758 2440 -862 194 -21 733
-24 920 -5 759 78 1408 308 2014 715 383 257 785 636 1066 1005 l82 107 -554
3 c-304 1 -554 -2 -556 -6 -9 -27 -148 -223 -227 -322 -233 -289 -523 -524
-850 -690 -292 -149 -591 -242 -907 -284 -62 -8 -131 -18 -153 -21 -97 -13
-475 -17 -590 -6 -536 53 -1057 245 -1570 579 -440 286 -888 711 -1247 1182
-396 520 -720 1137 -944 1794 -209 613 -335 1263 -380 1955 l-6 104 138 -73
c137 -72 222 -117 359 -190 39 -21 133 -70 210 -110 77 -40 163 -85 190 -100
28 -15 147 -78 265 -140 118 -62 285 -150 370 -195 85 -45 286 -151 445 -235
160 -84 317 -167 350 -185 33 -18 170 -90 305 -160 135 -70 254 -134 265 -142
11 -7 25 -13 31 -13 10 0 1288 988 1854 1434 1139 897 1946 1650 2415 2251
114 145 296 420 382 575 389 699 542 1429 453 2165 -65 537 -275 1037 -616
1465 -91 115 -336 357 -462 458 -544 434 -1250 706 -1977 759 -60 4 -209 7
-330 6 -1089 -10 -2244 -408 -3240 -1116 -293 -209 -534 -414 -810 -691 -703
-704 -1221 -1545 -1539 -2498 -30 -87 -56 -161 -59 -164 -2 -3 -8 12 -12 33
-24 127 -183 613 -286 870 -810 2030 -2413 3318 -4404 3538 -200 22 -831 46
-845 33z m11499 -403 c908 -130 1622 -836 1840 -1820 44 -198 56 -320 55 -570
0 -178 -4 -270 -18 -355 -64 -418 -186 -744 -423 -1125 -250 -402 -527 -741
-962 -1176 -418 -418 -758 -718 -1406 -1244 -231 -187 -586 -475 -790 -640
-203 -165 -549 -446 -767 -623 -218 -177 -402 -322 -409 -322 -6 0 -102 48
-213 106 -110 59 -248 132 -306 162 -58 30 -166 87 -240 127 -140 75 -260 138
-465 245 -66 34 -133 70 -150 80 -16 9 -104 56 -195 103 -91 47 -208 109 -260
137 -52 28 -132 70 -177 93 l-83 41 0 106 c-2 341 1 616 5 690 12 172 36 477
39 496 2 10 7 48 10 84 15 136 88 553 130 741 55 245 101 413 178 649 290 892
713 1662 1302 2370 136 164 499 533 652 663 681 578 1398 920 2079 991 162 17
423 13 574 -9z m-8994 -5038 c11 -8 88 -49 170 -92 83 -43 177 -93 210 -110
33 -18 233 -124 445 -235 212 -111 437 -230 500 -263 63 -34 252 -134 420
-222 l305 -162 8 -94 c8 -91 2 -652 -8 -754 -3 -27 -10 -120 -15 -205 -70
-1010 -390 -2085 -890 -2990 -811 -1468 -2081 -2515 -3305 -2724 -153 -26
-222 -31 -450 -31 -239 0 -331 11 -542 66 -861 221 -1511 1016 -1639 2004 -23
175 -23 497 0 665 60 444 207 819 489 1248 364 554 809 1036 1592 1727 199
176 364 312 1280 1055 308 250 747 606 975 792 228 186 420 338 425 338 6 0
19 -6 30 -13z" />
	</g>
</svg>
